<?xml version="1.0"?>
<svg xmlns="http://www.w3.org/2000/svg" viewBox="0 0 50 50">
    <path d="M 2 11 C 1.448 11 1 11.448 1 12 L 1 38 C 1 38.553 1.448 39 2 39 L 48 39 C 48.553 39 49 38.553 49 38 L 49 12 C 49 11.448 48.553 11 48 11 L 2 11 z M 16 13 L 18 13 L 18 37 L 16 37 L 16 13 z M 32 13 L 34 13 L 34 37 L 32 37 L 32 13 z M 36.5 14 L 38.9375 14 C 38.9155 14.27 38.90025 14.54875 38.90625 14.84375 L 39.0625 14.84375 C 39.2185 14.52075 39.41725 14.242 39.65625 14 L 44.9375 14 C 45.7895 14.74 46.3135 15.829 46.3125 17.125 C 46.3125 19.705 44.3405 21.53125 41.5625 21.53125 C 39.7645 21.53125 38.31975 20.7655 37.46875 19.3125 C 36.78075 18.2555 36.4375 16.828 36.4375 15.125 C 36.4375 14.739 36.466 14.357 36.5 14 z M 41.5625 15.03125 C 40.2645 15.03125 39.28125 15.9495 39.28125 17.1875 C 39.28125 18.4515 40.25825 19.40625 41.53125 19.40625 C 42.80425 19.40625 43.78125 18.46475 43.78125 17.21875 C 43.78125 15.95475 42.8615 15.03125 41.5625 15.03125 z M 9.0625 18.5 C 12.1075 18.5 14 20.881 14 25 C 14 29.102 12.1325 31.53125 9.0625 31.53125 C 5.9925 31.53125 4.15625 29.119 4.15625 25 C 4.15625 20.889 6.0095 18.5 9.0625 18.5 z M 25 18.625 C 28.045 18.625 29.9375 21.006 29.9375 25.125 C 29.9375 29.227 28.07 31.65625 25 31.65625 C 21.93 31.65625 20.0625 29.244 20.0625 25.125 C 20.0625 21.014 21.947 18.625 25 18.625 z M 9.0625 20.625 C 7.6525 20.625 6.78125 22.118 6.78125 25 C 6.78125 27.898 7.6435 29.40625 9.0625 29.40625 C 10.4895 29.40625 11.375 27.907 11.375 25 C 11.375 22.11 10.4815 20.625 9.0625 20.625 z M 25 20.75 C 23.59 20.75 22.71875 22.243 22.71875 25.125 C 22.71875 28.023 23.581 29.5625 25 29.5625 C 26.428 29.5625 27.28125 28.032 27.28125 25.125 C 27.28125 22.235 26.419 20.75 25 20.75 z M 37 25 L 45.75 25 L 45.75 27.15625 L 41.28125 36 L 38.59375 36 L 43.15625 27.3125 L 43.15625 27.15625 L 37 27.15625 L 37 25 z"/>
</svg>
